<?xml version="1.0" standalone="no"?>
<!DOCTYPE svg PUBLIC "-//W3C//DTD SVG 20010904//EN"
 "http://www.w3.org/TR/2001/REC-SVG-20010904/DTD/svg10.dtd">
<svg version="1.0" xmlns="http://www.w3.org/2000/svg"
 width="554.000000pt" height="900.000000pt" viewBox="0 0 554.000000 900.000000"
 preserveAspectRatio="xMidYMid meet">

<g transform="translate(0.000000,900.000000) scale(0.100000,-0.100000)"
fill="red" stroke="none">
<path d="M2605 8714 c-265 -26 -429 -59 -623 -123 -407 -135 -733 -340 -1037
-652 -206 -211 -332 -392 -460 -654 -115 -238 -192 -482 -232 -745 -27 -176
-25 -577 5 -760 78 -479 261 -877 577 -1260 l71 -85 273 -769 c150 -422 275
-782 278 -800 3 -17 -28 -263 -67 -546 l-73 -515 -53 -55 c-29 -30 -60 -72
-69 -92 -19 -48 -19 -118 0 -166 19 -45 84 -113 148 -154 42 -27 47 -34 47
-68 0 -36 -1 -38 -42 -44 -24 -4 -53 -14 -66 -22 -21 -14 -22 -19 -22 -198 l0
-184 63 -59 c207 -193 572 -342 985 -403 365 -53 858 -40 1207 31 345 72 654
208 820 363 l65 61 6 185 c7 213 5 220 -67 229 l-44 6 -3 46 c-3 45 -2 47 52
88 77 57 116 127 116 204 0 87 -33 142 -133 222 l-37 30 -65 469 c-36 258 -65
488 -65 510 0 27 96 329 279 878 l279 837 85 113 c651 867 689 2047 94 2948
-139 211 -381 469 -580 618 -353 266 -773 440 -1197 498 -104 14 -438 26 -515
18z m255 -439 c55 -168 100 -311 100 -319 0 -9 -18 -15 -52 -20 -80 -9 -321
-7 -337 3 -12 8 0 59 73 303 93 309 103 338 110 338 3 0 50 -137 106 -305z
m-270 283 c0 -12 -170 -590 -175 -596 -3 -4 -207 48 -214 54 -2 2 78 128 179
279 164 246 210 303 210 263z m516 -255 c97 -148 178 -273 181 -278 4 -13
-167 -60 -177 -48 -4 4 -49 134 -99 288 -51 154 -95 286 -97 293 -3 6 -1 12 5
12 5 0 90 -120 187 -267z m234 206 c181 -44 488 -159 497 -186 9 -26 -344
-243 -394 -243 -10 0 -258 360 -317 459 -11 18 60 8 214 -30z m-976 19 c-4 -7
-74 -113 -156 -235 l-149 -222 -27 12 c-99 42 -340 190 -358 218 -16 27 337
163 557 214 122 28 143 30 133 13z m1787 -388 c392 -275 693 -658 863 -1096
l28 -71 -212 -319 c-117 -175 -216 -323 -221 -328 -7 -8 -1089 1605 -1089
1623 0 4 39 26 88 50 98 49 216 124 312 199 l64 51 41 -24 c22 -14 79 -52 126
-85z m-2544 31 c92 -70 213 -144 301 -186 34 -16 61 -35 60 -41 -5 -18 -1030
-1544 -1038 -1544 -4 0 -99 136 -210 302 l-203 302 17 50 c24 69 126 272 188
375 136 225 342 457 559 628 58 46 238 173 245 173 2 0 38 -27 81 -59z m638
-316 c55 -15 106 -29 114 -31 7 -2 11 -10 8 -17 -23 -61 -239 -799 -234 -803
8 -9 129 -6 137 3 5 6 195 626 231 758 l9 30 253 0 254 0 129 -395 129 -395
73 -3 c44 -2 72 1 72 7 0 6 -59 191 -131 412 -72 221 -127 405 -122 409 4 4
46 17 93 29 47 13 93 25 102 28 13 4 108 -132 423 -604 l406 -610 -121 -174
c-67 -96 -126 -181 -130 -189 -6 -10 -12 -12 -18 -5 -5 6 -93 130 -196 278
-104 147 -190 267 -192 267 -2 0 -4 -53 -4 -117 l0 -118 156 -222 155 -222
-156 -225 -155 -224 0 -124 0 -123 36 50 c19 28 108 155 196 283 89 127 164
232 167 232 3 0 47 -60 98 -133 50 -72 108 -155 128 -184 l37 -52 -185 -613
c-102 -337 -218 -721 -258 -853 -39 -132 -75 -247 -80 -256 -8 -17 -172 -75
-304 -109 -103 -26 -256 -53 -263 -45 -5 4 119 518 358 1483 l28 112 -73 0
-73 0 -192 -776 c-105 -426 -196 -791 -201 -810 l-10 -34 -134 0 -134 0 -10
38 c-5 20 -96 387 -202 815 l-192 777 -74 0 c-66 0 -74 -2 -69 -17 7 -26 396
-1595 396 -1600 0 -7 -100 8 -228 33 -101 20 -337 87 -350 99 -8 7 -553 1764
-555 1786 -1 15 242 358 254 359 4 0 102 -127 218 -282 l211 -281 2 94 c1 52
1 105 0 117 0 14 -74 121 -171 250 l-169 227 32 45 c18 25 95 129 170 232
l137 188 -3 116 -3 116 -124 -169 c-68 -92 -163 -221 -210 -285 -47 -65 -89
-116 -93 -115 -8 2 -297 386 -305 404 -4 10 188 301 635 961 106 158 148 213
161 209 9 -2 61 -17 116 -32z m-1586 -1322 l182 -271 -203 -306 c-112 -168
-206 -306 -210 -306 -3 0 -11 23 -17 50 -31 146 -36 206 -36 465 1 283 8 361
56 569 18 76 25 94 34 84 7 -7 94 -135 194 -285z m4475 86 c58 -315 56 -604
-5 -936 -12 -62 -25 -113 -29 -113 -4 0 -98 137 -209 305 l-201 305 201 302
c150 224 204 297 210 286 5 -8 19 -75 33 -149z m-3735 -233 c83 -109 148 -204
144 -210 -20 -36 -238 -326 -245 -326 -11 0 -272 392 -272 410 -1 17 206 330
216 327 3 -1 74 -91 157 -201z m2995 -20 c64 -96 116 -179 116 -185 0 -6 -54
-91 -119 -191 l-120 -180 -97 137 c-53 76 -111 157 -127 181 l-31 42 57 83
c111 163 198 287 201 287 2 0 56 -78 120 -174z m-3312 -463 c84 -126 159 -244
166 -263 7 -19 70 -217 138 -440 69 -223 182 -584 250 -804 69 -219 122 -401
120 -404 -8 -7 -236 120 -340 190 -128 86 -218 162 -347 290 -201 203 -335
389 -454 633 -76 155 -138 317 -133 346 2 13 438 678 445 679 1 0 71 -102 155
-227z m3746 -189 l220 -331 -48 -117 c-159 -383 -411 -720 -730 -975 -134
-107 -412 -283 -425 -269 -5 5 -13 -22 215 723 93 303 193 631 223 730 l54
181 132 198 c73 109 134 196 135 194 2 -1 102 -152 224 -334z m-573 -2134
l-227 -680 -265 0 c-208 0 -264 3 -260 13 4 10 221 728 263 869 l14 46 128 65
c71 35 173 92 227 126 97 61 286 204 321 242 10 12 20 16 22 10 2 -6 -98 -317
-223 -691z m-2840 435 c73 -46 354 -193 396 -207 5 -2 70 -197 143 -433 73
-237 136 -440 140 -452 l7 -23 -250 0 c-229 0 -251 1 -260 18 -9 17 -461 1288
-461 1297 0 3 44 -28 98 -69 53 -41 138 -99 187 -131z m2192 -267 c-2 -7 -46
-150 -96 -318 -51 -168 -108 -356 -127 -417 l-35 -113 -235 0 -234 0 0 31 c0
18 39 184 86 370 l87 338 46 6 c99 13 301 56 391 83 110 34 124 37 117 20z
m-1443 -48 c88 -22 212 -46 275 -54 62 -8 115 -16 116 -18 10 -10 173 -701
169 -713 -5 -13 -41 -15 -238 -15 l-233 0 -51 168 c-29 92 -87 281 -131 420
-43 138 -76 252 -73 252 2 0 77 -18 166 -40z m732 -92 c-3 -13 -24 -102 -47
-198 -31 -129 -44 -170 -50 -155 -10 23 -89 339 -89 354 0 6 33 12 73 14 39 1
83 4 96 5 20 2 22 -2 17 -20z m-776 -859 c0 -11 -143 -543 -182 -673 -13 -47
-23 -65 -28 -55 -9 17 -260 724 -260 733 0 3 106 6 235 6 166 0 235 -3 235
-11z m560 4 c1 -18 -166 -663 -171 -663 -5 0 -209 647 -209 663 0 10 380 9
380 0z m620 -4 c0 -15 -190 -640 -201 -659 -7 -13 -8 -13 -13 0 -6 18 -166
657 -166 665 0 3 86 5 190 5 132 0 190 -3 190 -11z m678 -1 c-3 -7 -58 -173
-123 -368 -65 -195 -121 -359 -126 -364 -4 -5 -13 1 -19 15 -9 21 -180 707
-180 723 0 3 102 6 226 6 177 0 225 -3 222 -12z m-1105 -400 l65 -258 -140 0
c-108 0 -139 3 -135 13 2 6 33 125 68 264 35 139 67 249 71 245 3 -4 35 -123
71 -264z m682 -306 c-3 -3 -298 29 -303 34 -4 2 97 341 140 474 l22 65 71
-285 c40 -157 71 -286 70 -288z m-1880 208 c82 -232 92 -266 77 -272 -57 -22
-276 -87 -280 -83 -5 5 73 593 85 644 l6 25 10 -25 c5 -13 51 -143 102 -289z
m613 50 c39 -123 70 -225 69 -226 -5 -4 -272 -33 -275 -29 -2 2 22 97 53 212
62 230 76 276 80 271 2 -2 35 -104 73 -228z m1808 -118 c20 -150 35 -275 32
-277 -9 -9 -259 78 -255 89 2 6 42 125 88 264 70 211 85 249 91 225 4 -15 24
-151 44 -301z m-1050 -245 c4 -4 -42 -170 -102 -369 l-110 -362 -175 3 c-95 1
-184 5 -195 7 -21 5 -19 15 68 362 49 196 95 360 101 365 15 10 403 4 413 -6z
m-661 -363 c-47 -186 -87 -340 -90 -342 -5 -5 -212 23 -329 44 -63 12 -86 20
-86 31 0 23 150 567 159 576 9 9 196 35 326 45 74 5 101 4 103 -5 2 -6 -35
-164 -83 -349z m1143 325 c81 -12 149 -23 151 -24 4 -5 -199 -617 -208 -626
-7 -8 -190 -26 -358 -35 -101 -6 -123 -5 -123 7 0 7 48 171 107 363 l107 349
89 -7 c49 -3 155 -15 235 -27z m-1677 -141 c-16 -57 -48 -175 -71 -263 -24
-88 -45 -162 -46 -164 -2 -1 -40 9 -86 24 -225 74 -352 166 -334 240 14 55
147 140 306 195 57 19 233 68 252 70 3 0 -6 -46 -21 -102z m2128 42 c192 -62
341 -160 341 -222 0 -76 -161 -176 -385 -239 -110 -31 -288 -69 -294 -63 -3 3
37 131 88 285 l93 281 32 -6 c18 -4 74 -20 125 -36z m-1927 -872 c67 -36 78
-68 78 -227 l0 -134 -46 7 c-51 7 -159 37 -241 68 l-53 19 0 113 c0 109 1 113
28 139 15 14 38 31 52 36 39 17 134 6 182 -21z m1692 21 c22 -6 52 -24 68 -39
27 -28 28 -31 28 -143 l0 -115 -42 -16 c-57 -21 -150 -44 -210 -52 l-48 -7 0
140 c0 129 2 143 23 174 25 38 78 69 117 69 14 0 43 -5 64 -11z m-829 -78 c76
-35 80 -44 83 -218 2 -97 0 -159 -7 -166 -13 -13 -190 -21 -285 -12 l-76 7 0
162 0 162 28 27 c15 14 43 33 62 41 49 21 146 20 195 -3z"/>
<path d="M2150 6195 l0 -725 180 0 180 0 0 285 0 285 280 0 280 0 0 -285 0
-285 190 0 190 0 0 725 0 725 -190 0 -190 0 0 -255 0 -255 -280 0 -280 0 0
255 0 255 -180 0 -180 0 0 -725z"/>
</g>
</svg>
